<svg width="941" height="1114" viewBox="0 0 941 1114" fill="none" xmlns="http://www.w3.org/2000/svg">
<path d="M310.868 168.328C360.347 144.738 414.824 132.044 470.3 132.044C572.757 132.044 665.317 173.526 732.189 240.398C777.27 285.779 811.055 342.554 828.148 406.327C828.648 407.927 828.948 409.726 829.447 411.525C836.444 434.815 858.535 451.708 883.924 451.708C915.311 451.708 941 426.019 941 394.632V138.941C941 130.345 939.701 123.348 937.102 117.95C935.302 113.752 931.904 109.953 927.006 106.855C821.651 35.4849 646.925 0 470.4 0C294.075 0 119.249 35.4849 13.9941 106.855C9.09613 109.953 5.69758 113.852 3.89834 117.95C1.29945 123.448 0 130.445 0 138.941V394.832C0 426.219 25.3892 451.608 56.7759 451.608H150.936C151.436 451.608 151.736 451.608 152.235 451.608C152.735 451.608 153.235 451.608 153.535 451.608C154.035 451.608 154.534 451.608 154.834 451.608C155.334 451.608 155.634 451.608 156.134 451.908C156.633 451.908 156.933 451.908 157.433 451.908C157.733 452.208 158.233 452.208 158.733 452.208C159.032 452.208 159.532 452.208 159.732 452.508C160.232 452.508 160.532 452.508 161.032 452.508C161.531 452.808 162.031 452.808 162.331 453.007C162.831 453.007 163.131 453.007 163.63 453.307C164.13 453.307 164.43 453.607 164.63 453.607C165.13 453.607 165.43 453.907 165.929 453.907C166.229 454.207 166.729 454.207 167.229 454.407C167.529 454.407 168.029 454.707 168.228 454.907C168.728 454.907 169.028 455.206 169.228 455.206C169.728 455.506 170.228 455.506 170.528 455.706C171.027 455.706 171.327 456.006 171.527 456.206C172.027 456.206 172.327 456.506 172.827 456.706C173.126 457.006 173.626 457.006 173.826 457.206C174.126 457.505 174.326 457.505 174.826 457.705C175.325 458.005 175.625 458.205 175.825 458.205C176.125 458.505 176.325 458.705 176.825 459.005C177.325 459.305 177.624 459.505 177.824 459.505C178.324 459.805 178.624 460.004 178.824 460.304C179.124 460.604 179.324 460.804 179.824 460.804C180.123 461.304 180.323 461.304 180.623 461.804C181.123 461.804 181.423 462.104 181.623 462.303C181.923 462.603 182.422 462.803 182.622 463.103C182.922 463.403 183.122 463.603 183.622 463.903C183.922 464.203 184.122 464.403 184.422 464.702C184.721 465.002 184.921 465.202 185.221 465.702C186.021 466.202 186.521 466.702 187.021 467.301C187.32 467.601 187.52 467.801 187.82 468.301C188.12 468.601 188.32 468.801 188.82 469.101C188.82 469.4 189.32 469.6 189.32 470.1C189.819 470.4 190.119 470.6 190.119 470.9C190.619 471.4 190.619 471.699 190.919 471.899C191.219 472.199 191.419 472.699 191.719 472.899C192.018 473.199 192.218 473.399 192.518 473.899C192.818 474.198 192.818 474.398 193.018 474.698C193.318 475.198 193.518 475.498 193.518 475.998C194.018 476.298 194.018 476.497 194.317 476.797C194.617 477.297 194.817 477.797 195.117 478.097C195.117 478.397 195.417 478.597 195.417 479.096C195.917 479.596 195.917 479.896 196.217 480.096C196.217 480.396 196.516 480.896 196.716 481.095C196.716 481.595 197.016 482.095 197.216 482.395C197.216 482.695 197.516 483.195 197.716 483.395C197.716 483.694 198.016 484.194 198.216 484.694C198.216 484.994 198.216 485.494 198.516 485.694C198.516 486.193 198.815 486.493 198.815 486.993C199.115 487.293 199.115 487.493 199.315 487.993C199.315 488.492 199.315 488.792 199.615 489.292C199.615 489.792 199.915 490.092 199.915 490.591C199.915 490.891 200.215 491.391 200.215 491.591C200.515 492.091 200.515 492.391 200.515 492.89C200.515 493.39 200.515 493.69 200.815 494.19C200.815 494.49 201.115 494.99 201.115 495.489C201.115 495.789 201.115 496.289 201.115 496.789C201.115 497.089 201.115 497.588 201.414 498.088C201.414 498.388 201.414 498.888 201.414 499.388C201.414 499.688 201.414 500.187 201.414 500.687C201.414 500.987 201.414 501.487 201.414 501.987C201.414 576.155 231.502 643.326 280.281 692.006C329.06 740.785 396.232 770.872 470.3 770.872C511.483 770.872 550.966 761.776 586.451 744.683C622.235 727.591 654.422 702.701 680.011 670.815C697.404 649.024 729.29 645.626 750.781 663.018C772.572 680.611 775.97 712.297 758.578 734.088C723.592 777.37 679.511 811.855 630.232 835.745C580.453 859.335 525.976 872.029 470.2 872.029C368.044 872.029 275.683 830.547 208.611 763.675C188.62 743.684 133.943 679.711 111.852 595.947C104.556 569.458 83.3646 552.665 56.5759 552.665H56.2761C25.3892 552.865 0 577.954 0 609.341V628.233C0 706.3 70.2701 820.651 167.229 920.509C258.29 1014.67 371.342 1092.94 470.3 1113.93C569.658 1092.94 682.71 1014.67 773.671 920.509C870.63 820.651 940.9 706.3 940.9 628.333V605.742C940.9 576.655 917.01 552.865 887.723 552.865H789.964C789.464 552.865 789.165 552.865 788.665 552.865C788.165 552.865 787.865 552.865 787.365 552.865C786.866 552.865 786.566 552.865 786.066 552.565C785.566 552.565 785.266 552.565 784.766 552.565C784.466 552.265 783.967 552.265 783.467 552.265C783.167 552.265 782.667 552.265 782.467 552.265C781.968 551.965 781.668 551.965 781.168 551.765C780.668 551.765 780.368 551.765 779.868 551.765C779.369 551.466 778.869 551.466 778.569 551.266C778.269 551.266 777.769 551.266 777.27 550.966C776.97 550.966 776.47 550.966 776.27 550.666C775.77 550.666 775.47 550.366 775.27 550.366C774.771 550.066 774.271 550.066 773.671 550.066C773.371 549.766 772.871 549.566 772.672 549.566C772.372 549.266 771.872 549.266 771.672 549.067C771.172 549.067 770.672 548.767 770.372 548.567C770.073 548.567 769.573 548.267 769.373 548.267C769.073 547.967 768.573 547.767 768.073 547.767C767.774 547.267 767.574 547.267 767.074 546.967C766.774 546.967 766.574 546.668 766.074 546.468C765.774 546.168 765.275 545.968 765.075 545.968C764.775 545.668 764.575 545.668 764.075 545.168C763.775 545.168 763.276 544.868 763.076 544.668C762.776 544.369 762.276 544.369 762.076 543.869C761.776 543.869 761.576 543.369 761.276 543.369C760.777 543.069 760.477 542.869 760.277 542.569C759.777 542.269 759.477 542.07 759.277 541.77C758.977 541.47 758.478 541.27 758.278 540.97C757.978 540.67 757.778 540.47 757.278 540.17C757.278 539.871 756.778 539.671 756.478 539.371C756.179 539.071 755.979 538.871 755.679 538.571C755.379 538.271 755.179 538.071 754.679 537.571C754.379 537.272 754.179 537.272 753.88 536.772C753.58 536.472 753.38 536.272 753.08 535.972C752.78 535.472 752.58 535.472 752.28 534.973C751.98 534.673 751.78 534.473 751.481 534.173C750.981 533.673 750.981 533.373 750.681 533.173C750.381 532.873 750.181 532.374 749.881 532.174C749.581 531.874 749.381 531.674 749.082 531.174C748.782 530.874 748.582 530.674 748.282 530.375C748.282 529.875 747.982 529.575 747.782 529.375C747.482 529.075 747.282 528.575 747.282 528.375C746.982 527.876 746.783 527.576 746.483 527.376C746.183 527.076 746.183 526.576 745.683 526.076C745.683 525.776 745.383 525.577 745.383 525.277C745.083 524.777 744.883 524.277 744.883 523.977C744.583 523.677 744.384 523.178 744.084 522.978C744.084 522.678 743.784 522.178 743.584 521.678C743.584 521.378 743.284 521.178 743.084 520.679C743.084 520.379 743.084 519.879 742.784 519.679C742.484 519.179 742.484 518.879 742.284 518.38C742.284 517.88 742.284 517.58 741.985 517.38C741.685 516.88 741.685 516.58 741.685 516.081C741.385 515.781 741.385 515.281 741.385 515.081C741.085 514.581 740.885 514.081 740.885 513.482C740.885 513.182 740.885 512.682 740.585 512.482C740.585 511.982 740.285 511.682 740.285 511.183C740.285 510.883 740.285 510.383 739.985 509.883C739.985 509.583 739.985 509.084 739.686 508.884C739.686 508.384 739.686 508.084 739.686 507.584C739.686 507.084 739.686 506.785 739.686 506.285C739.686 505.785 739.386 505.485 739.386 504.985C739.386 504.486 739.386 504.186 739.386 503.686C739.386 503.186 739.386 502.686 739.386 502.386C739.386 428.018 709.298 360.847 660.819 312.067C611.84 263.288 544.668 233.201 470.2 233.201C429.517 233.201 389.834 242.497 354.249 259.39C318.465 276.482 286.278 301.672 260.689 333.258C243.297 355.049 211.71 358.448 189.919 341.055C168.129 323.662 164.73 291.776 182.123 270.285C217.308 226.604 261.589 192.118 310.868 168.328ZM468.001 349.052C493.19 349.052 516.78 355.049 537.971 365.944C515.381 363.346 491.591 370.642 474.398 388.035C444.311 418.122 444.311 466.902 474.398 496.889C504.486 526.976 552.965 526.976 583.052 496.889C600.445 479.496 607.942 455.906 605.043 433.316C615.938 454.307 621.936 478.197 621.936 503.286C621.936 588.05 552.665 657.52 467.901 657.52C382.837 657.52 313.667 588.05 313.667 503.286C313.767 418.522 382.937 349.052 468.001 349.052Z" fill="#E53E3E"/>
</svg>
